<svg xmlns="http://www.w3.org/2000/svg" viewBox="0 0 64 64" id="airplane-booking-app">
  <path d="M23,26a.99943.99943,0,0,1-1-1,5.00588,5.00588,0,0,0-5-5,1,1,0,0,1,0-2,7.00849,7.00849,0,0,1,7,7A.99943.99943,0,0,1,23,26Z"></path>
  <path d="M17 52.69531a.99942.99942 0 01-1-1V19a1 1 0 012 0V51.69531A.99942.99942 0 0117 52.69531zM49 46H25a3.00328 3.00328 0 01-3-3V3a3.00328 3.00328 0 013-3H49a3.00328 3.00328 0 013 3 1 1 0 01-2 0 1.00067 1.00067 0 00-1-1H25a1.00067 1.00067 0 00-1 1V43a1.00067 1.00067 0 001 1H49a1.00067 1.00067 0 001-1 1 1 0 012 0A3.00328 3.00328 0 0149 46z"></path>
  <path d="M51 18.875a.99943.99943 0 01-1-1V3a1 1 0 012 0V17.875A.99943.99943 0 0151 18.875zM51 37.001a4 4 0 010-8 1 1 0 010 2 2 2 0 000 4 1 1 0 010 2z"></path>
  <path d="M51,43a4,4,0,0,1,0-8,1,1,0,0,1,0,2,2,2,0,0,0,0,4,1,1,0,0,1,0,2Z"></path>
  <path d="M52,36.999a1,1,0,0,1,0-2,2,2,0,0,0,0-4,1,1,0,0,1,0-2,4,4,0,0,1,0,8Z"></path>
  <path d="M52,43a1,1,0,0,1,0-2,2,2,0,0,0,0-4,1,1,0,0,1,0-2,4,4,0,0,1,0,8Z"></path>
  <path d="M52 37H51a1 1 0 010-2h1a1 1 0 010 2zM52 43H51a1 1 0 010-2h1a1 1 0 010 2zM51 31.001a4 4 0 010-8 1 1 0 010 2 2 2 0 000 4 1 1 0 010 2z"></path>
  <path d="M51,25a4,4,0,0,1,0-8,1,1,0,0,1,0,2,2,2,0,0,0,0,4,1,1,0,0,1,0,2Z"></path>
  <path d="M52,30.999a1,1,0,0,1,0-2,2,2,0,0,0,0-4,1,1,0,0,1,0-2,4,4,0,0,1,0,8Z"></path>
  <path d="M52,25a1,1,0,0,1,0-2,2,2,0,0,0,0-4,1,1,0,0,1,0-2,4,4,0,0,1,0,8Z"></path>
  <path d="M52 25.001H51a1 1 0 010-2h1a1 1 0 010 2zM52 19H51a1 1 0 010-2h1a1 1 0 010 2zM52 30.999H51a1 1 0 010-2h1a1 1 0 010 2zM36 59.30469a1 1 0 01-.74219-1.66992l12-13.30469a.99982.99982 0 011.48438 1.33984l-12 13.30469A.99735.99735 0 0136 59.30469z"></path>
  <path d="M38,60a.986.986,0,0,1-.32812-.05566l-23-8a.99972.99972,0,1,1,.65625-1.88868l23,8A.99989.99989,0,0,1,38,60Z"></path>
  <path d="M8.999 64a.99991.99991 0 01-.89355-1.44727l6-12a1.00012 1.00012 0 111.78906.89454l-6 12A1.00011 1.00011 0 018.999 64zM35.999 64a.99991.99991 0 01-.89355-1.44727l2-4a1.00012 1.00012 0 011.78906.89454l-2 4A1.00011 1.00011 0 0135.999 64zM51 44a.99943.99943 0 01-1-1V42a1 1 0 012 0v1A.99943.99943 0 0151 44zM17.01953 59a1 1 0 01-.00976-2h.00976a1 1 0 110 2zM37 43a3 3 0 113-3A3.00328 3.00328 0 0137 43zm0-4a1 1 0 101 1A1.00067 1.00067 0 0037 39zM34.01953 6a1 1 0 01-.00976-2h.00976a1 1 0 010 2zM40 6H37a1 1 0 010-2h3a1 1 0 010 2zM33.11133 27.8877a1 1 0 01-.707-1.707l9.89941-9.89941a.99989.99989 0 011.41406 1.41406l-9.89941 9.89942A.99676.99676 0 0133.11133 27.8877z"></path>
  <path d="M33.81836,30.00977a.99856.99856,0,0,1-.94824-.6836l-.707-2.12207a.99964.99964,0,1,1,1.89648-.63281l.707,2.12207a1.00062,1.00062,0,0,1-.94824,1.31641Z"></path>
  <path d="M33.11133 27.8877a.99854.99854 0 01-.31641-.05176l-2.12207-.707a.99964.99964 0 01.63281-1.89649l2.12207.707a.99986.99986 0 01-.3164 1.94825zM41.59473 29.30273a.99971.99971 0 01-.96387-.7373l-2.12109-7.77832a1 1 0 111.92968-.52539L42.56055 28.04a.99986.99986 0 01-.70215 1.22754A.97924.97924 0 0141.59473 29.30273z"></path>
  <path d="M39.47559,21.52441a.97931.97931,0,0,1-.26368-.03515l-7.77832-2.1211a1,1,0,0,1,.52539-1.92968l7.77832,2.12109a1,1,0,0,1-.26171,1.96484Z"></path>
</svg>
