<svg xmlns="http://www.w3.org/2000/svg" viewBox="0 0 64 64" id="chat-box">
  <path d="M40,54.78a3,3,0,0,1-1.89-.68l-7.73-6.33a1,1,0,1,1,1.26-1.54l7.74,6.32A1,1,0,0,0,41,51.78V47a1,1,0,0,1,1-1,5.07,5.07,0,0,0,5-5V25a4.94,4.94,0,0,0-4.86-5H10.86A4.94,4.94,0,0,0,6,25V41a4.94,4.94,0,0,0,4.86,5H25.52a1,1,0,0,1,0,2H10.86A6.94,6.94,0,0,1,4,41V25a6.94,6.94,0,0,1,6.86-7H42.14A6.94,6.94,0,0,1,49,25V41a7,7,0,0,1-6,6.93v3.85a3,3,0,0,1-1.72,2.71A2.93,2.93,0,0,1,40,54.78ZM53.14,38a1,1,0,0,1,0-2A4.94,4.94,0,0,0,58,31V15a4.94,4.94,0,0,0-4.86-5H21.87a4.88,4.88,0,0,0-4.8,4.16,1,1,0,1,1-2-.32A6.88,6.88,0,0,1,21.87,8H53.14A6.94,6.94,0,0,1,60,15V31A6.94,6.94,0,0,1,53.14,38ZM37,35a2,2,0,1,1,2-2A2,2,0,0,1,37,35ZM26,35a2,2,0,1,1,2-2A2,2,0,0,1,26,35ZM15,35a2,2,0,1,1,2-2A2,2,0,0,1,15,35Z"></path>
</svg>
