<svg xmlns="http://www.w3.org/2000/svg" enable-background="new 0 0 16 16" viewBox="0 0 16 16" id="map">
  <path d="M15,14.912V4.794l-4-2l-0.439-0.254c-0.124-0.206-0.265-0.402-0.44-0.576c-1.17-1.169-3.072-1.169-4.242,0    C5.313,2.531,5,3.285,5,4.086C5,4.16,5.016,4.232,5.021,4.305L1,2.294v10.118l4,2l0.477,0.238L6,14.442l4.477-1.791L15,14.912z     M14,5.412v7.882l-3-1.5V4.086V3.912L14,5.412z M6.586,2.671c0.779-0.779,2.049-0.779,2.828,0C9.598,2.855,9.739,3.069,9.838,3.3    l0.02,0.05c0.007,0.017,0.01,0.035,0.016,0.052c0.037,0.102,0.07,0.205,0.09,0.31C9.987,3.834,10,3.959,10,4.086    C10,4.62,9.792,5.122,9.414,5.5L8,6.914L6.586,5.5C6.491,5.405,6.407,5.302,6.334,5.193C6.321,5.173,6.313,5.151,6.301,5.132    C6.244,5.039,6.19,4.945,6.149,4.844C6.052,4.607,6,4.35,6,4.086C6,3.552,6.208,3.049,6.586,2.671z M2,11.794V3.912l3,1.5v7.882    L2,11.794z M6,6.328l2,2l2-2v5.437l-4,1.6V6.328z"></path>
  <circle cx="8" cy="3.907" r=".625"></circle>
</svg>
