<svg xmlns="http://www.w3.org/2000/svg" viewBox="0 0 64 64" id="travel-list">
  <path d="M28,52A25.9747,25.9747,0,1,1,53.669,30.15918a1.00005,1.00005,0,0,1-1.97461-.31836A23.97428,23.97428,0,1,0,34.72168,49.0459a1,1,0,0,1,.56055,1.91992A26.0035,26.0035,0,0,1,28,52Z"></path>
  <path d="M61,64H35a.99943.99943,0,0,1-1-1V30a.99943.99943,0,0,1,1-1H61a.99943.99943,0,0,1,1,1V63A.99943.99943,0,0,1,61,64ZM36,62H60V31H36Z"></path>
  <path d="M58,61H38a.99943.99943,0,0,1-1-1V33a.99943.99943,0,0,1,1-1H58a.99943.99943,0,0,1,1,1V60A.99943.99943,0,0,1,58,61ZM39,59H57V34H39Z"></path>
  <path d="M52 34H44a1.00028 1.00028 0 01-.832-.44531l-2-3A.99992.99992 0 0142 29H54a.99992.99992 0 01.832 1.55469l-2 3A1.00028 1.00028 0 0152 34zm-7.46484-2h6.92968l.667-1H43.86816zM43 41a.99676.99676 0 01-.707-.293l-1-1A.99989.99989 0 0142.707 38.293l1 1A1 1 0 0143 41z"></path>
  <path d="M43.03125 41.03125a1 1 0 01-.707-1.707L44.293 37.35547A.99989.99989 0 0145.707 38.76953l-1.96875 1.96875A.99676.99676 0 0143.03125 41.03125zM54 40H49a1 1 0 010-2h5a1 1 0 010 2zM43 45.95313a.99676.99676 0 01-.707-.293l-1-1A.99989.99989 0 0142.707 43.24609l1 1a1 1 0 01-.707 1.707z"></path>
  <path d="M43.03125 45.98438a1 1 0 01-.707-1.707L44.293 42.30859A.99989.99989 0 1145.707 43.72266l-1.96875 1.96875A.99676.99676 0 0143.03125 45.98438zM54 44.95313H49a1 1 0 010-2h5a1 1 0 010 2zM43 50.90625a.99676.99676 0 01-.707-.293l-1-1A.99989.99989 0 0142.707 48.19922l1 1a1 1 0 01-.707 1.707z"></path>
  <path d="M43.03125 50.9375a1 1 0 01-.707-1.707L44.293 47.26172A.99989.99989 0 0145.707 48.67578l-1.96875 1.96875A.99676.99676 0 0143.03125 50.9375zM54 49.90625H49a1 1 0 010-2h5a1 1 0 010 2zM43 55.85938a.99676.99676 0 01-.707-.293l-1-1A.99989.99989 0 0142.707 53.15234l1 1a1 1 0 01-.707 1.707z"></path>
  <path d="M43.03125 55.89063a1 1 0 01-.707-1.707L44.293 52.21484A.99989.99989 0 1145.707 53.62891l-1.96875 1.96875A.99676.99676 0 0143.03125 55.89063zM54 54.85938H49a1 1 0 010-2h5a1 1 0 010 2zM35.002 43.00488H9a1 1 0 010-2H35.002a1 1 0 110 2z"></path>
  <path d="M15.002,41.00488a.99942.99942,0,0,1-1-1,4.004,4.004,0,0,1,4-4,1,1,0,0,1,0,2,2.0026,2.0026,0,0,0-2,2A.99942.99942,0,0,1,15.002,41.00488Z"></path>
  <path d="M35.002 38.00488h-17a1 1 0 010-2h17a1 1 0 110 2zM15.002 43.00488a.99942.99942 0 01-1-1v-2a1 1 0 012 0v2A.99942.99942 0 0115.002 43.00488z"></path>
  <path d="M31.002,38.002h-5.998a1.00028,1.00028,0,0,1-.99414-1.11035l2-18.00195A1.0001,1.0001,0,0,1,27.00391,18h1.998a1.0001,1.0001,0,0,1,.99414.88965l2,18.00195A1.00028,1.00028,0,0,1,31.002,38.002Zm-4.88086-2h3.76368L28.10645,20h-.207Z"></path>
  <path d="M43.99414,20.001a.99943.99943,0,0,1-1-1,6.9961,6.9961,0,1,0-13.99219,0,1,1,0,0,1-2,0,8.9961,8.9961,0,1,1,17.99219,0A.99942.99942,0,0,1,43.99414,20.001Z"></path>
  <path d="M40.002,20.001a.99943.99943,0,0,1-1-1,5,5,0,0,0-10,0,1,1,0,0,1-2,0,7,7,0,0,1,14,0A.99942.99942,0,0,1,40.002,20.001Z"></path>
  <path d="M35.99805,20.001a.99942.99942,0,0,1-1-1,2.998,2.998,0,0,0-5.9961,0,1,1,0,0,1-2,0,4.998,4.998,0,0,1,9.9961,0A.99943.99943,0,0,1,35.99805,20.001Z"></path>
  <path d="M27.99414,20.001a.99943.99943,0,0,1-1-1,6.9961,6.9961,0,1,0-13.99219,0,1,1,0,0,1-2,0,8.9961,8.9961,0,1,1,17.99219,0A.99942.99942,0,0,1,27.99414,20.001Z"></path>
  <path d="M27.99414,20.001a.99943.99943,0,0,1-1-1,5,5,0,0,0-10,0,1,1,0,0,1-2,0,7,7,0,0,1,14,0A.99942.99942,0,0,1,27.99414,20.001Z"></path>
  <path d="M27.99414 20.001a.99943.99943 0 01-1-1 2.998 2.998 0 10-5.99609 0 1 1 0 01-2 0 4.998 4.998 0 119.99609 0A.99942.99942 0 0127.99414 20.001zM29.669 26.00488h-3.332a1 1 0 010-2h3.332a1 1 0 010 2zM30.335 32.00488H25.669a1 1 0 110-2h4.666a1 1 0 010 2z"></path>
</svg>
